<?xml version="1.0" encoding="utf-8"?>
<!-- Generator: Adobe Illustrator 16.0.0, SVG Export Plug-In . SVG Version: 6.00 Build 0)  -->
<!DOCTYPE svg PUBLIC "-//W3C//DTD SVG 1.1//EN" "http://www.w3.org/Graphics/SVG/1.1/DTD/svg11.dtd">
<svg version="1.1" xmlns="http://www.w3.org/2000/svg" xmlns:xlink="http://www.w3.org/1999/xlink" x="0px" y="0px" width="71px"
	 height="16px" viewBox="0 0 71 16" style="enable-background:new 0 0 71 16;" xml:space="preserve">
<style type="text/css">
<![CDATA[
	.st0{fill:#15AEE7;}
	.st1{enable-background:new    ;}
]]>
</style>
<g id="lightflows_x2122__copy_2_1_" class="st1">
	<g id="lightflows_x2122__copy_2">
		<g>
			<path d="M22.6,10.6c-0.2,0-0.3,0-0.4,0c-0.3,0-0.5-0.1-0.6-0.2c-0.1-0.2-0.2-0.4-0.2-0.7v-7h-1.4v7.1c0,0.3,0,0.6,0.1,0.9
				c0.1,0.3,0.1,0.5,0.3,0.6s0.3,0.3,0.6,0.4c0.2,0.1,0.6,0.1,0.9,0.1c0.2,0,0.4,0,0.6,0c0.2,0,0.4-0.1,0.6-0.1v-1.2
				C22.8,10.5,22.7,10.6,22.6,10.6z"/>
		</g>
	</g>
</g>
<g id="_ightflows_1_" class="st1">
	<g id="_ightflows">
		<g>
			<path d="M23.5,11.7H25V6h-1.4V11.7z M24.2,3.2c-0.3,0-0.5,0.1-0.7,0.3c-0.2,0.2-0.3,0.4-0.3,0.6c0,0.2,0.1,0.4,0.3,0.6
				c0.2,0.2,0.4,0.3,0.7,0.3c0.3,0,0.5-0.1,0.7-0.2c0.2-0.2,0.3-0.4,0.3-0.6s-0.1-0.5-0.3-0.6C24.7,3.3,24.5,3.2,24.2,3.2z
				 M30.7,6.8L30.7,6.8c-0.2-0.3-0.5-0.6-0.9-0.8c-0.4-0.2-0.7-0.2-1.1-0.2c-0.4,0-0.8,0.1-1.2,0.2c-0.3,0.2-0.6,0.4-0.9,0.6
				c-0.2,0.3-0.4,0.6-0.6,1c-0.1,0.4-0.2,0.8-0.2,1.2c0,0.4,0.1,0.8,0.2,1.1c0.1,0.4,0.3,0.7,0.6,0.9c0.3,0.3,0.6,0.5,0.9,0.6
				s0.7,0.2,1.2,0.2c0.4,0,0.7-0.1,1.1-0.2s0.6-0.3,0.8-0.6h0v0.4c0,0.3,0,0.5-0.1,0.8c-0.1,0.2-0.2,0.4-0.3,0.6
				c-0.1,0.2-0.3,0.3-0.6,0.4c-0.2,0.1-0.5,0.1-0.9,0.1c-0.4,0-0.8-0.1-1.1-0.2c-0.3-0.1-0.6-0.3-0.9-0.6L26,13.6
				c0.4,0.4,0.8,0.6,1.3,0.7s1,0.2,1.5,0.2c0.6,0,1-0.1,1.4-0.2c0.4-0.2,0.7-0.4,1-0.7c0.3-0.3,0.5-0.6,0.6-1.1
				c0.1-0.4,0.2-0.9,0.2-1.4V6h-1.4V6.8z M30.6,9.5c-0.1,0.2-0.2,0.4-0.3,0.5c-0.1,0.1-0.3,0.3-0.5,0.4c-0.2,0.1-0.4,0.1-0.7,0.1
				c-0.2,0-0.5,0-0.7-0.1s-0.4-0.2-0.5-0.4c-0.2-0.2-0.3-0.3-0.4-0.5c-0.1-0.2-0.1-0.4-0.1-0.6c0-0.3,0-0.5,0.1-0.7
				c0.1-0.2,0.2-0.4,0.3-0.5c0.1-0.1,0.3-0.3,0.5-0.3c0.2-0.1,0.4-0.1,0.7-0.1c0.5,0,0.9,0.2,1.2,0.5s0.5,0.7,0.5,1.2
				C30.7,9,30.7,9.3,30.6,9.5z M38.1,6.5c-0.2-0.2-0.4-0.4-0.7-0.5s-0.6-0.2-1-0.2c-0.4,0-0.8,0.1-1.1,0.3c-0.3,0.2-0.5,0.4-0.6,0.6
				h0V2.7h-1.4v9h1.4V8.6c0-0.2,0-0.4,0.1-0.5c0-0.2,0.1-0.3,0.2-0.5c0.1-0.1,0.2-0.2,0.4-0.3c0.2-0.1,0.4-0.1,0.6-0.1
				c0.2,0,0.4,0.1,0.6,0.2c0.1,0.1,0.2,0.3,0.3,0.4c0.1,0.2,0.1,0.4,0.1,0.5s0,0.4,0,0.5v2.9h1.4V8.1c0-0.3,0-0.6-0.1-0.8
				C38.4,7,38.2,6.7,38.1,6.5z M41.7,4.3h-1.4V6H39v1.2h1.2v2.6c0,0.3,0,0.6,0.1,0.9c0.1,0.3,0.1,0.5,0.3,0.6
				c0.1,0.2,0.3,0.3,0.6,0.4c0.2,0.1,0.6,0.1,0.9,0.1c0.2,0,0.4,0,0.6,0c0.2,0,0.4-0.1,0.6-0.1v-1.2c-0.1,0.1-0.2,0.1-0.4,0.1
				c-0.2,0-0.3,0-0.4,0c-0.3,0-0.5-0.1-0.6-0.2c-0.1-0.2-0.2-0.4-0.2-0.7V7.2h1.6V6h-1.6V4.3z M45.8,2.7c-0.3,0.1-0.5,0.3-0.7,0.5
				c-0.2,0.2-0.3,0.5-0.3,0.8c-0.1,0.3-0.1,0.7-0.1,1.1V6h-1.2v1.2h1.2v4.5h1.4V7.2h1.3V6h-1.3v-1c0-0.2,0-0.3,0-0.5
				c0-0.1,0.1-0.3,0.1-0.4c0.1-0.1,0.2-0.2,0.3-0.3c0.1-0.1,0.3-0.1,0.5-0.1c0.1,0,0.2,0,0.3,0s0.2,0,0.3,0.1l0.1-1.2
				c-0.3-0.1-0.6-0.1-0.9-0.1C46.4,2.6,46.1,2.6,45.8,2.7z M48.2,11.7h1.4v-9h-1.4V11.7z M55.9,6.7c-0.3-0.3-0.6-0.5-1-0.6
				c-0.4-0.1-0.8-0.2-1.2-0.2c-0.4,0-0.8,0.1-1.2,0.2c-0.4,0.1-0.7,0.3-1,0.6S51,7.2,50.8,7.6s-0.2,0.8-0.2,1.2s0.1,0.9,0.2,1.2
				c0.2,0.4,0.4,0.7,0.7,0.9s0.6,0.5,1,0.6c0.4,0.1,0.8,0.2,1.2,0.2c0.4,0,0.8-0.1,1.2-0.2c0.4-0.1,0.7-0.3,1-0.6s0.5-0.6,0.7-0.9
				c0.2-0.4,0.2-0.8,0.2-1.2S56.8,8,56.6,7.6S56.2,6.9,55.9,6.7z M55.3,9.5C55.2,9.7,55.1,9.9,55,10c-0.1,0.2-0.3,0.3-0.5,0.4
				c-0.2,0.1-0.4,0.1-0.7,0.1s-0.5,0-0.7-0.1c-0.2-0.1-0.4-0.2-0.5-0.4c-0.1-0.2-0.3-0.3-0.3-0.5S52,9.1,52,8.8s0-0.4,0.1-0.6
				s0.2-0.4,0.3-0.5c0.1-0.2,0.3-0.3,0.5-0.4c0.2-0.1,0.4-0.1,0.7-0.1s0.5,0,0.7,0.1c0.2,0.1,0.4,0.2,0.5,0.4
				c0.1,0.2,0.3,0.3,0.3,0.5s0.1,0.4,0.1,0.6S55.4,9.3,55.3,9.5z M64.8,6l-1.2,4h0l-1.2-4h-1.6l-1.2,4h0l-1.2-4h-1.6l2,5.7h1.5
				l1.2-3.9h0l1.4,3.9h1.4l2-5.7H64.8z M70.7,9.1c-0.2-0.2-0.3-0.4-0.6-0.5s-0.5-0.2-0.7-0.3s-0.5-0.1-0.7-0.2S68.2,8,68.1,8
				c-0.2-0.1-0.2-0.2-0.2-0.4c0-0.2,0.1-0.4,0.3-0.5C68.3,7,68.5,7,68.7,7c0.5,0,0.8,0.2,1.1,0.6l1-0.9c-0.2-0.3-0.5-0.5-0.9-0.7
				s-0.8-0.2-1.1-0.2c-0.3,0-0.6,0-0.8,0.1s-0.5,0.2-0.7,0.3c-0.2,0.2-0.4,0.3-0.5,0.6c-0.1,0.2-0.2,0.5-0.2,0.8
				c0,0.4,0.1,0.7,0.2,0.9C66.8,8.7,67,8.9,67.2,9s0.5,0.2,0.7,0.2c0.3,0.1,0.5,0.1,0.7,0.2s0.4,0.1,0.6,0.2
				c0.2,0.1,0.2,0.2,0.2,0.4c0,0.1,0,0.2-0.1,0.3c-0.1,0.1-0.1,0.2-0.2,0.2s-0.2,0.1-0.3,0.1c-0.1,0-0.2,0-0.3,0
				c-0.3,0-0.6-0.1-0.8-0.2s-0.4-0.3-0.6-0.5l-1,0.9c0.3,0.3,0.6,0.6,1,0.7s0.8,0.2,1.2,0.2c0.3,0,0.6,0,0.9-0.1s0.6-0.2,0.8-0.3
				c0.2-0.1,0.4-0.3,0.6-0.6c0.1-0.2,0.2-0.5,0.2-0.9C71,9.6,70.9,9.3,70.7,9.1z"/>
		</g>
	</g>
</g>
<g id="circle_copy_2_1_" class="st1">
	<g id="circle_copy_2">
		<g>
			<path class="st0" d="M8.1,0C3.6,0,0,3.6,0,8c0,4.4,3.6,8,8.1,8s8.1-3.6,8.1-8C16.1,3.6,12.5,0,8.1,0z M10.9,13.8
				C3.4,12.7,2.2,7.4,5.5,2.9c1.2-1.7,3.2-0.1,1.9,1.3c-2.4,2.6-3.4,7.9,3.5,9.4C11.1,13.7,11.1,13.8,10.9,13.8z M11.1,13.2
				c-6.4-1.6-4.5-6.1-2.9-8c1-1.2,2.2,0.2,1.4,1C8.9,7,5.5,11.6,11.2,13C11.4,13.1,11.4,13.2,11.1,13.2z M11.4,12.6
				c-3.5-1.1-2.6-3.9-1-5.3c0.8-0.7,1.6,0.4,0.8,0.9c-2.3,1.6-1.8,3.6,0.2,4.2C11.6,12.5,11.5,12.6,11.4,12.6z"/>
		</g>
	</g>
</g>
</svg>
